<?xml version="1.0" encoding="utf-8"?>
<!-- Generator: Adobe Illustrator 27.6.0, SVG Export Plug-In . SVG Version: 6.00 Build 0)  -->
<svg version="1.1" id="Layer_1" xmlns="http://www.w3.org/2000/svg" xmlns:xlink="http://www.w3.org/1999/xlink" x="0px" y="0px"
	 viewBox="0 0 259.7 93.4" style="enable-background:new 0 0 259.7 93.4;" xml:space="preserve">
<style type="text/css">
	.st0{fill:#FFFFFF;}
	.st1{enable-background:new    ;}
</style>
<g id="Group_608984" transform="translate(-1023.269 -125.5)">
	<g id="Group_604805" transform="translate(73 1.5)">
		<g id="Group_601222" transform="matrix(0.921, -0.391, 0.391, 0.921, -729.241, 439.834)">
			<g id="Mouse">
				<path class="st0" d="M1671.9,467.5c-0.2-0.1-0.4-0.2-0.5-0.3l-12.2-7.4c-1.4-0.9-2.2-2.5-2-4.2c0.2-1.6,1.4-3,3-3.5l4.3-1.2
					l1.8-3.3c0.8-1.5,2.5-2.4,4.2-2.1l0.1,0c1.7,0.3,3,1.5,3.4,3.2l3.5,13.9c0.4,1.6-0.1,3.3-1.4,4.3
					C1675.1,467.9,1673.4,468.2,1671.9,467.5z M1666.4,450.6C1666.4,450.6,1666.4,450.7,1666.4,450.6L1666.4,450.6z M1673.4,451.4
					l-0.1,0.1C1673.4,451.5,1673.4,451.5,1673.4,451.4z"/>
			</g>
			<g id="Path_1036338">
				<path class="st0" d="M1662.4,452.9c-0.3-0.1-0.6-0.3-0.8-0.5c-0.4-0.4-10.1-10.6-3.8-31.6c3.3-11.1,10.3-16.7,15.5-19.4
					c5.7-2.9,10.6-3.2,10.8-3.2c1.4-0.1,2.6,1,2.6,2.4c0.1,1.4-1,2.6-2.4,2.6c-0.7,0-16.5,1.2-21.8,19.1
					c-5.4,18.1,2.2,26.4,2.6,26.7c0.9,1,0.9,2.6-0.1,3.5C1664.3,453.1,1663.2,453.3,1662.4,452.9z"/>
			</g>
		</g>
		<g class="st1">
			<path class="st0" d="M989.2,152.3c-0.1-0.1-0.2-0.2-0.2-0.4v-3.3c0-0.1,0.1-0.2,0.2-0.1c1.5,1,3.4,1.5,5.1,1.5c2.1,0,3-0.7,3-1.7
				c0-0.9-0.6-1.5-2.5-2.4l-1.4-0.6c-3.4-1.5-4.4-3.2-4.4-5.4c0-3,2.3-5.4,6.7-5.4c1.8,0,3.4,0.2,4.4,0.7c0.1,0.1,0.2,0.2,0.2,0.4
				v3.1c0,0.1-0.1,0.3-0.3,0.1c-1.1-0.6-2.7-0.9-4.3-0.9c-2.2,0-2.9,0.7-2.9,1.7c0,0.9,0.6,1.5,2.7,2.3l1,0.4
				c3.7,1.5,4.8,3.3,4.8,5.6c0,3.4-2.7,5.5-7.1,5.5C992.1,153.3,990.4,152.9,989.2,152.3z"/>
			<path class="st0" d="M1007.1,147.1c0.1,1.6,1.3,2.9,4,2.9c1.3,0,2.4-0.2,3.4-0.6c0.1-0.1,0.2,0,0.2,0.1v2.7
				c0,0.2-0.1,0.3-0.2,0.3c-1.1,0.5-2.4,0.8-4.3,0.8c-5.3,0-7.1-3.6-7.1-7.1c0-3.9,2.4-7.4,6.8-7.4c4.2,0,5.9,3.3,5.9,6
				c0,0.9-0.1,1.6-0.1,1.9c0,0.1-0.1,0.2-0.2,0.2c-0.4,0.1-1.4,0.1-2.9,0.1H1007.1z M1010.7,144.3c0.9,0,1.3,0,1.4-0.1
				c0-0.1,0-0.2,0-0.2c0-0.7-0.5-2.2-2.4-2.2c-1.8,0-2.5,1.3-2.7,2.5H1010.7z"/>
			<path class="st0" d="M1021.6,147.1c0.1,1.6,1.3,2.9,4,2.9c1.3,0,2.4-0.2,3.4-0.6c0.1-0.1,0.2,0,0.2,0.1v2.7
				c0,0.2-0.1,0.3-0.2,0.3c-1.1,0.5-2.4,0.8-4.3,0.8c-5.3,0-7.1-3.6-7.1-7.1c0-3.9,2.4-7.4,6.8-7.4c4.2,0,5.9,3.3,5.9,6
				c0,0.9-0.1,1.6-0.1,1.9c0,0.1-0.1,0.2-0.2,0.2c-0.4,0.1-1.4,0.1-2.9,0.1H1021.6z M1025.2,144.3c0.9,0,1.3,0,1.4-0.1
				c0-0.1,0-0.2,0-0.2c0-0.7-0.5-2.2-2.4-2.2c-1.8,0-2.5,1.3-2.7,2.5H1025.2z"/>
			<path class="st0" d="M1038.9,135.4c0-1.3,0.9-2.2,2.2-2.2c1.3,0,2.2,0.9,2.2,2.2c0,1.3-0.9,2.2-2.2,2.2
				S1038.9,136.7,1038.9,135.4z M1039.1,139.3c0-0.1,0.1-0.2,0.2-0.2h3.4c0.2,0,0.2,0.1,0.2,0.2v13.4c0,0.2,0,0.3-0.3,0.3h-3.4
				c-0.2,0-0.3-0.1-0.3-0.3V139.3z"/>
			<path class="st0" d="M1053.5,152.5c0,0.2,0,0.3-0.2,0.4c-0.8,0.3-1.5,0.4-2.5,0.4c-2.4,0-3.9-1.2-3.9-4v-6.9h-1.7
				c-0.2,0-0.2-0.1-0.2-0.3v-2.7c0-0.2,0.1-0.3,0.3-0.3h1.7c0-1,0.1-2.6,0.3-3.4c0-0.1,0.1-0.2,0.3-0.3l3.3-0.4c0.1,0,0.2,0,0.2,0.2
				c-0.1,0.9-0.1,2.5-0.1,3.9h2.6c0.2,0,0.2,0.1,0.2,0.2v2.8c0,0.1-0.1,0.2-0.2,0.2h-2.6v6c0,1.2,0.4,1.8,1.5,1.8
				c0.3,0,0.6-0.1,1-0.1c0.1,0,0.2,0,0.2,0.2V152.5z"/>
			<path class="st0" d="M1062,135.4c0-1.3,0.9-2.2,2.2-2.2c1.3,0,2.2,0.9,2.2,2.2c0,1.3-0.9,2.2-2.2,2.2S1062,136.7,1062,135.4z
				 M1062.2,139.3c0-0.1,0.1-0.2,0.2-0.2h3.4c0.2,0,0.2,0.1,0.2,0.2v13.4c0,0.2,0,0.3-0.3,0.3h-3.4c-0.2,0-0.3-0.1-0.3-0.3V139.3z"
				/>
			<path class="st0" d="M1069.3,142.3c0-1-0.1-2.4-0.1-3c0-0.1,0-0.2,0.2-0.2h2.9c0.2,0,0.3,0.1,0.4,0.2c0.1,0.3,0.2,0.5,0.2,0.9
				c1.2-1,2.5-1.4,4-1.4c2.2,0,4.7,1.1,4.7,5.6v8.3c0,0.2-0.1,0.3-0.3,0.3h-3.4c-0.2,0-0.3-0.1-0.3-0.3v-8c0-1.7-0.7-2.6-2.2-2.6
				c-1,0-1.7,0.3-2.3,0.9v9.7c0,0.1-0.1,0.2-0.3,0.2h-3.4c-0.2,0-0.3-0.1-0.3-0.3V142.3z"/>
			<path class="st0" d="M1102.2,149.9c0,0.7,0,1.3,0.1,2c0,0.1,0,0.1-0.1,0.1c-2.5,1-4.1,1.3-6.1,1.3c-3.1,0-5.7-1.4-5.7-4.7
				c0-3,2.6-4.5,6.3-4.5c0.8,0,1.4,0,1.7,0.1v-0.2c0-0.5-0.3-1.8-2.7-1.8c-1.4,0-2.6,0.3-3.7,0.8c-0.1,0.1-0.3,0-0.3-0.1V140
				c0-0.1,0-0.2,0.2-0.3c1.2-0.6,2.8-0.9,4.4-0.9c4,0,5.8,2.5,5.8,5.7V149.9z M1098.4,147c-0.4-0.1-0.8-0.1-1.4-0.1
				c-2,0-2.8,0.6-2.8,1.7c0,0.9,0.7,1.7,2.5,1.7c0.6,0,1.2-0.1,1.7-0.3V147z"/>
			<path class="st0" d="M1115.2,152.6c0,0.1,0,0.2-0.1,0.2c-0.9,0.4-2,0.4-3.1,0.4c-4.5,0-7.4-3.1-7.4-7.2c0-4.2,3.2-7.3,7.9-7.3
				c1.4,0,2.1,0.1,2.6,0.3c0.1,0.1,0.2,0.1,0.2,0.3l0,2.9c0,0.2-0.1,0.2-0.2,0.2c-0.5-0.2-1.3-0.3-2.4-0.3c-2.4,0-4.1,1.3-4.1,3.8
				c0,2.9,2.2,3.9,4.1,3.9c1,0,1.8-0.1,2.3-0.3c0.2-0.1,0.2,0,0.2,0.1V152.6z"/>
			<path class="st0" d="M1125.2,152.5c0,0.2,0,0.3-0.2,0.4c-0.8,0.3-1.5,0.4-2.5,0.4c-2.4,0-3.9-1.2-3.9-4v-6.9h-1.7
				c-0.2,0-0.2-0.1-0.2-0.3v-2.7c0-0.2,0.1-0.3,0.3-0.3h1.7c0-1,0.1-2.6,0.3-3.4c0-0.1,0.1-0.2,0.3-0.3l3.3-0.4c0.1,0,0.2,0,0.2,0.2
				c-0.1,0.9-0.1,2.5-0.1,3.9h2.6c0.2,0,0.2,0.1,0.2,0.2v2.8c0,0.1-0.1,0.2-0.2,0.2h-2.6v6c0,1.2,0.4,1.8,1.5,1.8
				c0.3,0,0.6-0.1,1-0.1c0.1,0,0.2,0,0.2,0.2V152.5z"/>
			<path class="st0" d="M1127.4,135.4c0-1.3,0.9-2.2,2.2-2.2c1.3,0,2.2,0.9,2.2,2.2c0,1.3-0.9,2.2-2.2,2.2
				C1128.2,137.6,1127.4,136.7,1127.4,135.4z M1127.6,139.3c0-0.1,0.1-0.2,0.2-0.2h3.4c0.2,0,0.2,0.1,0.2,0.2v13.4
				c0,0.2,0,0.3-0.3,0.3h-3.4c-0.2,0-0.3-0.1-0.3-0.3V139.3z"/>
			<path class="st0" d="M1147.8,146c0,4.4-2.9,7.3-6.9,7.3c-4.8,0-6.9-3.6-6.9-7.2c0-4,2.7-7.3,7-7.3
				C1145.5,138.8,1147.8,142.2,1147.8,146z M1138,146c0,2.5,1.1,4,3,4c1.6,0,2.9-1.4,2.9-4c0-2.2-0.9-4-3-4
				C1139.2,142.1,1138,143.5,1138,146z"/>
			<path class="st0" d="M1150.3,142.3c0-1-0.1-2.4-0.1-3c0-0.1,0-0.2,0.2-0.2h2.9c0.2,0,0.3,0.1,0.4,0.2c0.1,0.3,0.2,0.5,0.2,0.9
				c1.2-1,2.5-1.4,4-1.4c2.2,0,4.7,1.1,4.7,5.6v8.3c0,0.2-0.1,0.3-0.3,0.3h-3.4c-0.2,0-0.3-0.1-0.3-0.3v-8c0-1.7-0.7-2.6-2.2-2.6
				c-1,0-1.7,0.3-2.3,0.9v9.7c0,0.1-0.1,0.2-0.3,0.2h-3.4c-0.2,0-0.3-0.1-0.3-0.3V142.3z"/>
		</g>
	</g>
</g>
</svg>
